<svg xmlns="http://www.w3.org/2000/svg" xmlns:xlink="http://www.w3.org/1999/xlink" width="60" zoomAndPan="magnify" viewBox="0 0 45 66.75" height="89" preserveAspectRatio="xMidYMid meet" version="1.0"><defs><clipPath id="e01047ba1f"><path d="M 0.0820312 56 L 10 56 L 10 66.5 L 0.0820312 66.5 Z M 0.0820312 56 " clip-rule="nonzero"/></clipPath></defs><g clip-path="url(#e01047ba1f)"><path fill="#6b21a8" d="M 6.125 66.5 C 5.886719 66.5 5.660156 66.382812 5.523438 66.179688 L 0.3125 58.402344 C 0.0898438 58.070312 0.179688 57.621094 0.511719 57.398438 C 0.84375 57.171875 1.292969 57.261719 1.515625 57.59375 L 5.816406 64.015625 L 7.675781 56.605469 C 7.773438 56.21875 8.167969 55.980469 8.554688 56.078125 C 8.941406 56.175781 9.179688 56.570312 9.082031 56.960938 L 6.828125 65.953125 C 6.757812 66.230469 6.53125 66.441406 6.25 66.492188 C 6.207031 66.5 6.167969 66.5 6.125 66.5 " fill-opacity="1" fill-rule="nonzero"/></g><path fill="#6b21a8" d="M 6.152344 65.007812 C 5.824219 65.007812 5.523438 64.78125 5.449219 64.449219 C 3.355469 55.472656 1.921875 45.546875 11.488281 41.394531 C 14.289062 40.175781 18.746094 40.378906 23.46875 40.59375 C 31.117188 40.9375 39.035156 41.292969 41.042969 36.023438 C 43.273438 30.175781 36.59375 25.375 30.140625 20.734375 C 24.867188 16.945312 19.886719 13.367188 20.433594 9.324219 C 20.878906 6.050781 24.863281 3.128906 32.976562 0.140625 C 33.351562 0 33.769531 0.195312 33.90625 0.570312 C 34.046875 0.945312 33.855469 1.363281 33.480469 1.503906 C 26.132812 4.210938 22.226562 6.90625 21.871094 9.519531 C 21.441406 12.695312 26.078125 16.027344 30.984375 19.558594 C 37.566406 24.285156 45.027344 29.648438 42.398438 36.542969 C 40.019531 42.789062 31.191406 42.390625 23.402344 42.042969 C 18.855469 41.835938 14.5625 41.644531 12.066406 42.726562 C 3.523438 46.433594 4.898438 55.710938 6.859375 64.117188 C 6.949219 64.507812 6.707031 64.898438 6.320312 64.988281 C 6.261719 65 6.207031 65.007812 6.152344 65.007812 " fill-opacity="1" fill-rule="nonzero"/></svg>